HIERARCHY
ROOT pelvis
{
  OFFSET 0 100 0
  CHANNELS 6 Xposition Yposition Zposition Zrotation Xrotation Yrotation
  JOINT pelvis_right_femur
  {
    OFFSET -10.78128 -3.44521 -0.5502486
    CHANNELS 3 Zrotation Xrotation Yrotation
    JOINT right_femur_tibia
    {
      OFFSET -0.8047443 -44.0398 -0.1307829
      CHANNELS 3 Zrotation Xrotation Yrotation
      JOINT right_tibia_foot
      {
        OFFSET 3.006224 -47.83518 -5
        CHANNELS 3 Zrotation Xrotation Yrotation
        End Site
        {
          OFFSET 0 -5 15
        }
      }
    }
  }
  JOINT pelvis_left_femur
  {
    OFFSET 10.78128 -3.44521 -0.5502486
    CHANNELS 3 Zrotation Xrotation Yrotation
    JOINT left_femur_tibia
    {
      OFFSET 0.8047443 -44.0398 -0.1307829
      CHANNELS 3 Zrotation Xrotation Yrotation
      JOINT left_tibia_foot
      {
        OFFSET -4.370144 -48.10324 -4.275266
        CHANNELS 3 Zrotation Xrotation Yrotation
        End Site
        {
          OFFSET 0 -5 15
        }
      }
    }
  }
  JOINT pelvis_spine1
  {
    OFFSET 0 6.468898 -3.129235
    CHANNELS 3 Zrotation Xrotation Yrotation
    JOINT spine1
    {
      OFFSET 0 23.15396 4.99043
      CHANNELS 3 Zrotation Xrotation Yrotation
      JOINT spine2
      {
        OFFSET 0 20.79997 -5.064912
        CHANNELS 3 Zrotation Xrotation Yrotation
        JOINT neck
        {
          OFFSET 0 14.38658 9.616178
          CHANNELS 3 Zrotation Xrotation Yrotation
          End Site
          {
            OFFSET 0 20 0
          }
        }
      }
      JOINT right_manubrium
      {
        OFFSET -5.722621 16.35077 3.967754
        CHANNELS 3 Zrotation Xrotation Yrotation
        JOINT right_clavicle
        {
          OFFSET -13.16364 1.694482 -4.693211
          CHANNELS 3 Zrotation Xrotation Yrotation
          JOINT right_humerus
          {
            OFFSET -28.5034 -0.3100689 -2.792744
            CHANNELS 3 Zrotation Xrotation Yrotation
            JOINT right_radius
            {
              OFFSET -25.15693 0.02248979 -1.271978
              CHANNELS 3 Zrotation Xrotation Yrotation
              End Site
              {
                OFFSET -15 0 0
              }
            }
          }
        }
      }
      JOINT left_manubrium
      {
        OFFSET 5.722621 16.35077 3.967754
        CHANNELS 3 Zrotation Xrotation Yrotation
        JOINT left_clavicle
        {
          OFFSET 13.16364 1.694482 -4.693211
          CHANNELS 3 Zrotation Xrotation Yrotation
          JOINT left_humerus
          {
            OFFSET 29.39168 -1.063119 -2.237045
            CHANNELS 3 Zrotation Xrotation Yrotation
            JOINT left_radius
            {
              OFFSET 24.59957 -0.9528479 0.9047498
              CHANNELS 3 Zrotation Xrotation Yrotation
              End Site
              {
                OFFSET 15 -0 -0
              }
            }
          }
        }
      }
    }
  }
}
MOTION
Frames: 9
Frame Time: 0.0416666666667
0 103.5113 0 2.581394 -1.987107 0.256005 0.9789783 -11.12572 7.810261 -0 37.09271 -0 -4.758657 -18.77117 -3.305689 -8.109634 11.45444 -23.9894 -0 4.255218 -0 8.192847 -15.45357 25.8741 -2.356997 -3.463654 5.145905 2.832655 9.958498 -7.501282 1.384033 21.98063 5.950591 2.159636 -25.70891 9.531495 6.113993 -19.32141 10.9262 85.98243 34.69492 -19.98316 -0 0 14.82533 -6.886821 7.869046 3.981487 5.782879 -20.53132 -1.304723 -95.65401 25.82704 24.41399 0 0 -12.97786 9.437391 16.66026 3.579109
0.2487694 103.477 1.31964 1.949056 -0.9597357 0.3323369 1.995474 -13.42054 8.752211 -0 37.55108 -0 -4.328895 -18.39344 -3.591647 -7.741577 11.24497 -23.9546 -0 4.312963 -0 7.25081 -16.60375 26.01997 -2.373682 -3.498568 5.181705 2.798005 9.969942 -7.448597 1.388452 22.06898 5.878448 2.106136 -25.60934 9.492304 6.121621 -19.33787 10.89237 85.91942 34.69111 -19.88993 -0 0 14.84571 -6.925307 7.847375 4.00308 5.712067 -20.48276 -1.361076 -95.76537 25.96227 24.56309 0 0 -12.7778 9.305428 16.7432 3.728793
0.4807867 103.3695 2.90505 1.032015 -0.278968 0.3838703 3.350347 -17.53864 8.243389 -0 35.65827 -0 -5.096062 -16.02699 -3.41228 -7.077627 11.45655 -23.03656 -0 4.746773 -0 5.904798 -18.60838 25.36752 -2.358107 -3.338998 5.022529 3.02512 9.928163 -7.690079 1.28868 21.72112 6.240918 2.336454 -26.26355 9.663151 6.057412 -19.28741 11.03434 86.34092 34.64717 -20.55432 -0 0 14.56332 -6.525457 7.551314 3.961791 5.881697 -20.72757 -1.332117 -95.46962 25.86757 24.25742 0 0 -14.10101 9.527733 16.09155 3.679073
0.7113262 103.1933 4.693898 0.3536058 0.5487111 0.4206943 4.536028 -21.0797 8.376373 -0 33.83307 -0 -5.326386 -14.36935 -3.401452 -6.660939 11.51533 -22.38664 -0 4.965496 -0 5.421537 -20.05101 25.12109 -2.322947 -3.170505 4.905665 3.182369 9.903912 -7.851412 1.205028 21.45836 6.507147 2.517752 -26.71268 9.75813 5.992703 -19.21895 11.13599 86.66447 34.68143 -21.01274 -0 0 14.26377 -6.283985 7.372992 3.998145 5.976176 -20.90131 -1.350488 -95.15093 25.77732 23.95968 0 0 -15.21546 9.679365 15.5015 3.664741
0.9509338 102.8763 6.772463 -0.1692037 1.327157 0.4735101 5.538731 -24.69054 8.159015 -0 30.93619 -0 -5.638919 -12.43961 -3.154163 -6.379417 11.7118 -21.58805 -0 5.207895 -0 5.474409 -21.2609 24.76369 -2.279314 -2.978546 4.762799 3.373278 9.871922 -8.04737 1.09984 21.13813 6.831754 2.742942 -27.25826 9.87063 5.907602 -19.13717 11.25344 87.07105 34.71596 -21.59562 -0 0 13.88415 -6.002265 7.14496 4.057884 6.09154 -21.12466 -1.393866 -94.76736 25.69788 23.60979 0 0 -16.61838 9.831428 14.76813 3.700936
1.203789 102.3992 9.201097 -0.5717334 2.084705 0.5760476 6.348027 -28.1059 7.776065 -0 27.54086 -0 -5.947175 -10.42152 -2.752015 -6.191478 12.02757 -20.76604 -0 5.583888 -0 5.646044 -22.23347 24.20503 -2.214941 -2.769818 4.622011 3.546011 9.85022 -8.23024 0.9945308 20.82129 7.139309 2.970146 -27.74227 9.951248 5.815119 -19.03326 11.36294 87.48789 34.78763 -22.16304 -0 0 13.44869 -5.795806 6.978522 4.162127 6.192539 -21.34981 -1.469525 -94.31415 25.59638 23.19778 0 0 -18.07773 9.963917 13.99485 3.758549
1.46988 101.7601 12.07326 -0.885102 2.785691 0.7703904 6.933778 -31.2478 7.115787 -0 23.73713 -0 -6.334528 -8.196035 -2.167354 -6.055425 12.52517 -19.82624 -0 6.31466 -0 5.721149 -22.89952 23.24504 -2.135314 -2.558808 4.484022 3.701195 9.842859 -8.403909 0.8887522 20.51391 7.426463 3.194909 -28.16663 9.999728 5.719803 -18.91432 11.46399 87.92418 34.87605 -22.74035 -0 0 12.96822 -5.660756 6.859045 4.301103 6.279672 -21.58356 -1.584437 -93.82045 25.5007 22.75181 0 0 -19.57598 10.05227 13.19947 3.873899
1.745712 101.0004 15.48326 -1.163311 3.421106 1.09588 7.342053 -33.88991 6.298881 -0 19.94669 -0 -6.782537 -5.863457 -1.49373 -5.915725 13.19319 -18.75539 -0 7.66012 -0 5.416578 -23.1465 21.76307 -2.039246 -2.348608 4.358839 3.820797 9.86104 -8.554954 0.7899599 20.24006 7.664978 3.398904 -28.47364 9.996255 5.630364 -18.77873 11.55133 88.35754 34.98594 -23.28479 -0 0 12.45796 -5.640854 6.826926 4.476339 6.339743 -21.81052 -1.739444 -93.29097 25.40065 22.27106 0 0 -21.01383 10.08414 12.42607 4.040951
2.024605 100.2065 19.52017 -1.463778 3.955188 1.575182 7.660529 -35.72478 5.480714 -0 16.62876 -0 -7.255973 -3.590755 -0.8585649 -5.711044 13.97543 -17.52427 -0 9.963515 -0 4.489048 -22.78883 19.6854 -1.932236 -2.145128 4.256486 3.892989 9.914674 -8.673684 0.7016178 20.0223 7.834586 3.566065 -28.62868 9.927639 5.5555 -18.63214 11.62248 88.76969 35.11005 -23.76814 -0 0 11.94071 -5.759877 6.893121 4.685962 6.358613 -22.01813 -1.937109 -92.7526 25.31013 21.78369 0 0 -22.30263 10.03398 11.71166 4.279326
